<svg width="20.000000" height="20.000000" viewBox="0 0 20 20" fill="none" xmlns="http://www.w3.org/2000/svg" xmlns:xlink="http://www.w3.org/1999/xlink">
	<desc>
			Created with Pixso.
	</desc>
	<defs>
		<clipPath id="clip127_2593">
			<rect id="Property 1=eye-off" width="20.000000" height="20.000000" fill="white" fill-opacity="0"/>
		</clipPath>
	</defs>
	<rect id="Property 1=eye-off" width="20.000000" height="20.000000" fill="#FFFFFF" fill-opacity="0"/>
	<g clip-path="url(#clip127_2593)">
		<path id="Vector" d="M14.94 14.95C13.52 16.03 11.79 16.63 10 16.66C4.16 16.66 0.83 10 0.83 10C1.86 8.06 3.3 6.38 5.04 5.05M8.25 3.53C8.82 3.39 9.41 3.33 10 3.33C15.83 3.33 19.16 10 19.16 10C18.66 10.94 18.05 11.83 17.36 12.65M11.76 11.76C11.53 12.01 11.26 12.2 10.95 12.34C10.64 12.48 10.31 12.55 9.98 12.56C9.64 12.56 9.31 12.5 9 12.38C8.68 12.25 8.4 12.06 8.16 11.83C7.93 11.59 7.74 11.31 7.61 10.99C7.49 10.68 7.43 10.35 7.43 10.01C7.44 9.68 7.51 9.35 7.65 9.04C7.79 8.73 7.98 8.46 8.23 8.23" stroke="#050505" stroke-opacity="1.000000" stroke-width="1.800000" stroke-linejoin="round"/>
		<path id="Vector" d="M0.83 0.83L19.16 19.16" stroke="#050505" stroke-opacity="1.000000" stroke-width="1.800000" stroke-linejoin="round" stroke-linecap="round"/>
	</g>
</svg>
