<!-- Generated by IcoMoon.io -->
<svg version="1.1" xmlns="http://www.w3.org/2000/svg" width="32" height="32" viewBox="0 0 32 32">
<path fill="none" stroke-linejoin="round" stroke-linecap="round" stroke-miterlimit="4" stroke-width="0.4923" stroke="#000" d="M28.003 11.499v-4.51c0-0.794-0.315-1.556-0.876-2.119s-1.322-0.88-2.116-0.882l-4.51-0.014M28.003 20.501v4.501c0 0.796-0.316 1.559-0.879 2.122s-1.326 0.879-2.122 0.879h-4.501M11.499 3.975l-4.51 0.015c-0.794 0.002-1.555 0.32-2.116 0.882s-0.876 1.324-0.876 2.119v4.509M11.499 28.003h-4.501c-0.796 0-1.559-0.316-2.122-0.879s-0.879-1.326-0.879-2.122v-4.501"></path>
</svg>
