<!-- Generated by IcoMoon.io -->
<svg version="1.1" xmlns="http://www.w3.org/2000/svg" width="32" height="32" viewBox="0 0 32 32">
<path fill="none" stroke-linejoin="round" stroke-linecap="round" stroke-miterlimit="4" stroke-width="0.4923" stroke="#000" d="M28.003 11.499v-4.51c0-0.794-0.315-1.556-0.876-2.119s-1.322-0.88-2.116-0.882l-4.51-0.014M28.003 20.501v4.501c0 0.796-0.316 1.559-0.879 2.122s-1.326 0.879-2.122 0.879h-4.501M11.499 3.975l-4.51 0.015c-0.794 0.002-1.555 0.32-2.116 0.882s-0.876 1.324-0.876 2.119v4.509M11.499 28.003h-4.501c-0.796 0-1.559-0.316-2.122-0.879s-0.879-1.326-0.879-2.122v-4.501"></path>
<path opacity="0.3" fill="#000" d="M16 18.708c0.615 0 1.139-0.215 1.569-0.646s0.646-0.954 0.646-1.569-0.215-1.139-0.646-1.569c-0.431-0.431-0.954-0.646-1.569-0.646s-1.139 0.215-1.569 0.646c-0.431 0.431-0.646 0.954-0.646 1.569s0.215 1.139 0.646 1.569c0.431 0.431 0.954 0.646 1.569 0.646zM12.062 20.431c-0.271 0-0.502-0.096-0.695-0.289s-0.289-0.425-0.289-0.696v-5.908c0-0.271 0.097-0.502 0.289-0.695s0.424-0.289 0.695-0.289h1.551l0.911-0.985h2.954l0.911 0.985h1.551c0.271 0 0.503 0.097 0.696 0.289s0.289 0.424 0.289 0.695v5.908c0 0.271-0.096 0.503-0.289 0.696s-0.425 0.289-0.696 0.289h-7.877z"></path>
</svg>
