<!-- Generated by IcoMoon.io -->
<svg version="1.1" xmlns="http://www.w3.org/2000/svg" width="32" height="32" viewBox="0 0 32 32">
<path d="M16 23.040c1.6 0 2.96-0.56 4.081-1.679s1.679-2.481 1.679-4.081-0.56-2.96-1.679-4.081c-1.12-1.12-2.481-1.679-4.081-1.679s-2.96 0.56-4.081 1.679c-1.12 1.12-1.679 2.481-1.679 4.081s0.56 2.96 1.679 4.081c1.12 1.12 2.481 1.679 4.081 1.679zM5.76 27.52c-0.704 0-1.306-0.25-1.807-0.751s-0.753-1.105-0.753-1.809v-15.36c0-0.704 0.251-1.306 0.753-1.807s1.103-0.753 1.807-0.753h4.032l2.368-2.56h7.68l2.368 2.56h4.032c0.704 0 1.307 0.251 1.809 0.753s0.751 1.103 0.751 1.807v15.36c0 0.704-0.25 1.307-0.751 1.809s-1.105 0.751-1.809 0.751h-20.48z"></path>
</svg>
