<!-- Generated by IcoMoon.io -->
<svg version="1.1" xmlns="http://www.w3.org/2000/svg" width="32" height="32" viewBox="0 0 32 32">
<path d="M30.112 9.356c0 0-0.288-2.080-1.152-2.971-1.056-1.189-2.304-1.189-2.88-1.288-4.032-0.297-10.080-0.297-10.080-0.297s-6.048 0-10.080 0.297c-0.576 0.099-1.824 0.099-2.88 1.288-0.864 0.891-1.152 2.971-1.152 2.971s-0.288 2.377-0.288 4.754v2.179c0 2.377 0.288 4.853 0.288 4.853s0.288 2.080 1.152 2.971c1.056 1.189 2.496 1.189 3.168 1.288 2.304 0.099 9.792 0.198 9.792 0.198s6.048 0 10.080-0.297c0.576-0.099 1.824-0.099 2.88-1.288 0.864-0.891 1.152-2.971 1.152-2.971s0.288-2.377 0.288-4.754v-2.179c0-2.377-0.288-4.754-0.288-4.754zM13.024 19.063v-8.32l7.776 4.16-7.776 4.16z"></path>
</svg>
